<svg xmlns="http://www.w3.org/2000/svg" width="220" height="220" viewBox="0 0 220 220">
  <!-- Clásico: cartitas de lotería, un sol y estrellas, en dorado muy tenue -->
  <g fill="none" stroke="#f9c74f" stroke-opacity="0.09" stroke-width="2">
    <g transform="translate(34 30) rotate(-12)">
      <rect width="46" height="72" rx="5"/>
      <rect x="5" y="5" width="36" height="46" rx="2"/>
      <path d="M8 60h30M8 65h20"/>
    </g>
    <g transform="translate(140 118) rotate(14)">
      <rect width="46" height="72" rx="5"/>
      <rect x="5" y="5" width="36" height="46" rx="2"/>
      <path d="M8 60h30M8 65h20"/>
    </g>
    <g transform="translate(160 48)">
      <circle r="13"/>
      <path d="M0-22v-8M0 22v8M-22 0h-8M22 0h8M-15.5-15.5l-5.5-5.5M15.5 15.5l5.5 5.5M-15.5 15.5l-5.5 5.5M15.5-15.5l5.5-5.5"/>
    </g>
  </g>
  <g fill="#f9c74f" fill-opacity="0.08">
    <path d="M60 158l4.4 9 9.9 1.4-7.2 7 1.7 9.8-8.8-4.6-8.8 4.6 1.7-9.8-7.2-7 9.9-1.4z"/>
    <path d="M112 30l2.6 5.3 5.9.8-4.3 4.2 1 5.8-5.2-2.7-5.2 2.7 1-5.8-4.3-4.2 5.9-.8z"/>
    <circle cx="200" cy="200" r="3"/>
    <circle cx="16" cy="118" r="2.5"/>
  </g>
</svg>
